<svg xmlns="http://www.w3.org/2000/svg" viewBox="0 0 100 100">
  <!-- Gradients and filters -->
  <defs>
    <linearGradient id="navyGrad" x1="0%" y1="0%" x2="100%" y2="100%">
      <stop offset="0%" style="stop-color:#2C3E50;stop-opacity:1" />
      <stop offset="100%" style="stop-color:#1B2631;stop-opacity:1" />
    </linearGradient>
    <radialGradient id="flameGrad" >					
							<stop offset="0%" stop-color="#ffdf42" />											
							<stop offset="100%" stop-color="#fc4c02" />
    </radialGradient>
    <!-- Turbulence filter for gentle flame movement -->
    <filter id="turbulence">
      <feTurbulence 
        type="fractalNoise" 
        baseFrequency="0.005" 
        numOctaves="3" 
        seed="3">
        <animate 
          attributeName="baseFrequency"
          dur="21s" 
          values="0.02;0.02;0.01" 
          repeatCount="1" 
        />
      </feTurbulence>
      <feDisplacementMap in="SourceGraphic" scale="10" />
    </filter>
  </defs>
  
  <!-- Background circle   -->
  <circle cx="50" cy="50" r="50" fill="url(#navyGrad)"/>
  <!-- Animated outer orange flame -->
  <path d="M50 20 
           C58 35, 70 40, 70 55
           C70 70, 55 75, 50 80
           C45 75, 30 70, 30 55
           C30 40, 42 35, 50 20Z" 
        fill="url(#flameGrad)"
        filter="url(#turbulence)"/>
  
  <!-- Smaller, lower inner white flame -->
  <g transform="translate(0, 5)">
    <path d="M50 40
           C53 48, 56 50, 56 56
           C56 61, 52 63, 50 65
           C48 63, 44 61, 44 56
           C44 50, 47 48, 50 40Z" 
        fill="white"/>
    </g>
</svg>
